<svg width="50" height="50" viewBox="0 0 50 50" fill="none" xmlns="http://www.w3.org/2000/svg">
<path d="M35.4751 0H14.5251C5.42512 0 0.00012207 5.425 0.00012207 14.525V35.475C0.00012207 38.2 0.475122 40.575 1.40012 42.575C3.55012 47.325 8.15012 50 14.5251 50H35.4751C44.5751 50 50.0001 44.575 50.0001 35.475V29.75V14.525C50.0001 5.425 44.5751 0 35.4751 0ZM45.9251 26.25C43.9751 24.575 40.8251 24.575 38.8751 26.25L28.4751 35.175C26.5251 36.85 23.3751 36.85 21.4251 35.175L20.5751 34.475C18.8001 32.925 15.9751 32.775 13.9751 34.125L4.62512 40.4C4.07512 39 3.75012 37.375 3.75012 35.475V14.525C3.75012 7.475 7.47512 3.75 14.5251 3.75H35.4751C42.5251 3.75 46.2501 7.475 46.2501 14.525V26.525L45.9251 26.25Z" fill="#051655"/>
</svg>
